<svg xmlns="http://www.w3.org/2000/svg" xmlns:xlink="http://www.w3.org/1999/xlink" width="287" height="391" viewBox="0 0 287 391">
  <defs>
    <clipPath id="clip-path">
      <rect id="Rectangle_729" data-name="Rectangle 729" width="280.541" height="385.445" fill="none"/>
    </clipPath>
  </defs>
  <g id="Footer_Logo" data-name="Footer Logo" transform="translate(-122 -2873)">
    <g id="Rectangle_731" data-name="Rectangle 731" transform="translate(125 2876)" fill="#fff" stroke="#fff" stroke-width="3">
      <rect width="281" height="385" stroke="none"/>
      <rect x="-1.5" y="-1.5" width="284" height="388" fill="none"/>
    </g>
    <g id="Home_Page" data-name="Home Page" transform="translate(125 2891)">
      <g id="Group_9946" data-name="Group 9946" transform="translate(0 -15)">
        <g id="Group_9945" data-name="Group 9945" clip-path="url(#clip-path)">
          <path id="Path_195" data-name="Path 195" d="M101.865,50.16c34.366,0,79.554,22.08,115.865,39.822,5.1,2.494,10.27,5.144,15.265,7.707,6.7,3.434,13.618,6.986,20.528,10.232.1.049,8.04,3.525,14.736,3.525.366,0,.728-.014,1.085-.036V97.552c-8.281-1-27.363-10.319-45.876-19.365-9.708-4.743-19.7-9.624-30.068-14.391,5.305-2.243,10.851-5,16.637-7.873C227.385,47.307,247,37.57,269.344,37.192V24.074c-12.211.167-24.291,2.625-37.8,7.7A110.729,110.729,0,0,0,189.4,19.439a120.1,120.1,0,0,0-39.039,3.121c-8.517,2.083-16.729,5.526-24.669,8.856-4.973,2.086-10.111,4.24-15.214,6.006-2.961-.251-5.858-.378-8.617-.378-4.472,0-9.01.211-13.558.634l-8.188,1C53.945,42.63,23.994,61.268,11.2,69.936v15.8a6.5,6.5,0,0,0,1.523-.842c.47-.347,47.417-34.729,89.146-34.729m86.4-17.655a98.269,98.269,0,0,1,27.037,6.25c-3.808,1.8-7.5,3.635-11.1,5.425-11.1,5.515-20.733,10.3-28.912,11.631a296.236,296.236,0,0,0-40.872-14.167c18.134-7.607,36.218-10.68,53.848-9.139" fill="#007562"/>
          <path id="Path_196" data-name="Path 196" d="M127.087,337.287a8.523,8.523,0,0,0-6.447,2.658,11.346,11.346,0,0,0,0,14.3,9.261,9.261,0,0,0,12.923.061,10.069,10.069,0,0,0,2.444-7.18,10.182,10.182,0,0,0-2.444-7.209,8.428,8.428,0,0,0-6.476-2.627" fill="#004665"/>
          <path id="Path_197" data-name="Path 197" d="M207.489,337.287a8.429,8.429,0,0,0-6.477,2.627,10.177,10.177,0,0,0-2.443,7.209,10.065,10.065,0,0,0,2.443,7.18,9.261,9.261,0,0,0,12.923-.061,11.346,11.346,0,0,0,0-14.3,8.526,8.526,0,0,0-6.446-2.658" fill="#004665"/>
          <path id="Path_198" data-name="Path 198" d="M124.705,225.48V163.643c0-10.842,8.14-19.253,15.143-19.253s15.145,8.411,15.145,19.253V222.3q1.441-1.4,2.921-2.773,5.895-5.463,12.26-10.347V163.643c0-18.861-14.172-35.406-30.326-35.406s-30.328,16.545-30.328,35.406v48.781a142.291,142.291,0,0,1,11.307,9.338c1.327,1.22,2.614,2.463,3.878,3.718" fill="#005086"/>
          <path id="Path_199" data-name="Path 199" d="M67.508,96.137V190.41c2.891,1,5.731,2.066,8.473,3.184l.895.359c1.9.788,3.772,1.623,5.632,2.48v-85.3H198.032v80.531q7.3-3.688,15-6.748V96.137Z" fill="#005086"/>
          <path id="Path_200" data-name="Path 200" d="M44.681,290.423l56.4.238c3.5,2.27,6.907,4.393,10.178,6.353q1.754-6.921,4.169-13.684c-2.593-1.607-5.257-3.308-7.957-5.082L87.091,214.3c24.627,14.19,37.781,32.137,42.49,39.573q4.01-6.509,8.66-12.643a127.488,127.488,0,0,0-13.536-15.745c-1.264-1.255-2.551-2.5-3.878-3.718a142.452,142.452,0,0,0-11.306-9.338c-1.068-.795-2.142-1.584-3.233-2.351a152.085,152.085,0,0,0-23.78-13.64c-1.86-.858-3.733-1.693-5.632-2.48l-.895-.36c-2.742-1.118-5.582-2.179-8.473-3.183-1.433-.5-2.874-.985-4.33-1.45A244.873,244.873,0,0,0,11.2,178.914v32.427c7.455,8.653,18.076,20.435,30.018,32.023l-23.353-.4a184.738,184.738,0,0,1-6.665-25.3v47.2a154.015,154.015,0,0,0,13.513,23.211,131.3,131.3,0,0,0,15.764,18.3H61.978a1.113,1.113,0,0,0-.184-.192,121.956,121.956,0,0,1-17.113-15.751m24.506-84.779,18.78,58.936c-6.258-4.656-12.461-9.534-18.477-14.531q-1.559-1.294-3.108-2.628l-11.452-46.7c4.965,1.47,9.75,3.12,14.257,4.918M14.144,192.856a246.7,246.7,0,0,1,24.916,3.885l8,32.638c-13.987-14.045-26.008-28.118-32.921-36.523m20.1,83.953a142.623,142.623,0,0,1-11-20.179l33.072.565q1.764,1.516,3.54,3c7.031,5.841,14.252,11.487,21.5,16.813Z" fill="#64942f"/>
          <path id="Path_201" data-name="Path 201" d="M201.1,258.988a100.692,100.692,0,0,0-23.38,32.129,95.084,95.084,0,0,0-5.435,15.248h17.212a85.687,85.687,0,0,1,23.855-37.655,95.792,95.792,0,0,1,56-24.735v-14.41a116.359,116.359,0,0,0-33.356,7.631A110.22,110.22,0,0,0,201.1,258.988" fill="#0088c4"/>
          <path id="Path_202" data-name="Path 202" d="M235.9,306.366h33.439V275.173a41.774,41.774,0,0,0-22.1,10.541A36.354,36.354,0,0,0,235.9,306.366" fill="#0088c4"/>
          <path id="Path_203" data-name="Path 203" d="M157.915,219.525a166.918,166.918,0,0,0-19.673,21.7q-4.646,6.134-8.661,12.643a157.649,157.649,0,0,0-9.21,17.258q-2.75,6.021-4.947,12.2-2.412,6.759-4.168,13.683-1.177,4.644-2.047,9.353h16.933a139.253,139.253,0,0,1,9.8-30.058,147.514,147.514,0,0,1,34.226-47.061,159.814,159.814,0,0,1,50.55-31.6A167.552,167.552,0,0,1,269.344,186.6v-14.39A186.346,186.346,0,0,0,213.816,184.6a176.645,176.645,0,0,0-55.9,34.921" fill="#0088c4"/>
          <path id="Path_204" data-name="Path 204" d="M0,385.445H280.541V0H0Zm68.861-21.4H60.307V334.293L49.371,364.047H41.917L30.981,334.415v29.632H22.366V321.4H32.813l12.953,32.077L58.474,321.4H68.861Zm16.436,0H76.682V330.2H85.3Zm-.428-40.233a6.294,6.294,0,0,1-7.7,0,4.273,4.273,0,0,1-1.467-3.33,4.342,4.342,0,0,1,1.467-3.39,6.294,6.294,0,0,1,7.7,0,4.342,4.342,0,0,1,1.466,3.39,4.272,4.272,0,0,1-1.466,3.33m16.862,40.233H93.116V318.835h8.615Zm41.088-7.668a14.027,14.027,0,0,1-5.346,6.019,14.541,14.541,0,0,1-7.7,2.077,12.719,12.719,0,0,1-7.3-2.047,11.187,11.187,0,0,1-4.306-5.468v23.217h-8.615V330.2h8.615v7.026a11.032,11.032,0,0,1,4.306-5.437,12.858,12.858,0,0,1,7.3-2.016,14.54,14.54,0,0,1,7.7,2.077,14.035,14.035,0,0,1,5.346,6.018,23.215,23.215,0,0,1,0,18.512m16.649,7.668h-8.615V330.2h8.615Zm-.428-40.233a6.294,6.294,0,0,1-7.7,0,4.273,4.273,0,0,1-1.467-3.33,4.342,4.342,0,0,1,1.467-3.39,6.294,6.294,0,0,1,7.7,0,4.345,4.345,0,0,1,1.466,3.39,4.275,4.275,0,0,1-1.466,3.33m26.333,40.233h-4.522q-5.682,0-8.706-2.749t-3.024-9.165V337.47h-4.7V330.2h4.7v-8.37h8.614v8.37h7.576v7.271h-7.576v14.785a4.768,4.768,0,0,0,.978,3.422,4.561,4.561,0,0,0,3.3.977h3.36ZM225.024,330.2v33.848h-8.553V356.96a11.143,11.143,0,0,1-4.338,5.468,12.865,12.865,0,0,1-7.332,2.047,14.542,14.542,0,0,1-7.7-2.077,14.024,14.024,0,0,1-5.345-6.019,20.854,20.854,0,0,1-1.925-9.256v-.03a20.862,20.862,0,0,1,1.925-9.257,14.033,14.033,0,0,1,5.345-6.018,14.55,14.55,0,0,1,7.7-2.077,13.014,13.014,0,0,1,7.332,2.016,10.988,10.988,0,0,1,4.338,5.438v-7.026h8.553Zm31.069,31.588q-3.391,2.689-9.135,2.688-6.6,0-10.569-2.963a12.454,12.454,0,0,1-4.828-8.462h8.248a5.576,5.576,0,0,0,2.2,3.941,7.97,7.97,0,0,0,4.948,1.435,4.785,4.785,0,0,0,3.36-1.069,3.6,3.6,0,0,0,1.161-2.78,3.075,3.075,0,0,0-1.007-2.383,6.842,6.842,0,0,0-2.505-1.4q-1.5-.489-4.247-1.161a47.667,47.667,0,0,1-6.14-1.741,9.785,9.785,0,0,1-4.032-2.841,7.976,7.976,0,0,1-1.681-5.377,8.8,8.8,0,0,1,3.36-7.148q3.36-2.75,9.287-2.749,6.171,0,9.9,3.115a13.507,13.507,0,0,1,4.644,8.31h-8.065a6.713,6.713,0,0,0-2.2-3.91,6.612,6.612,0,0,0-4.46-1.467,5.129,5.129,0,0,0-3.422,1.039,3.5,3.5,0,0,0-1.222,2.81,2.858,2.858,0,0,0,.978,2.261,7.014,7.014,0,0,0,2.444,1.344q1.467.491,4.216,1.161a43.576,43.576,0,0,1,6.262,1.8,10.376,10.376,0,0,1,4.155,2.994,8.253,8.253,0,0,1,1.741,5.529,8.545,8.545,0,0,1-3.39,7.027M269.345,24.074V306.366H11.2V10.813H269.345Z" fill="#004665"/>
        </g>
      </g>
    </g>
  </g>
</svg>
